<svg width="28" height="28" viewBox="0 0 32 32" fill="none" xmlns="http://www.w3.org/2000/svg">
<path d="M25.3757 21.6718C24.6123 20.9026 22.7632 19.7801 21.866 19.3277C20.6977 18.7393 20.6016 18.6912 19.6833 19.3734C19.0708 19.8287 18.6636 20.2354 17.9467 20.0825C17.2299 19.9296 15.6721 19.0676 14.3082 17.7081C12.9442 16.3485 12.0322 14.7457 11.8788 14.0313C11.7254 13.3169 12.1389 12.9145 12.5899 12.3006C13.2255 11.4353 13.1774 11.291 12.6341 10.1228C12.2105 9.2142 11.0552 7.38255 10.2831 6.62297C9.45709 5.80714 9.45709 5.95136 8.92487 6.17251C8.49157 6.3548 8.07588 6.57639 7.68301 6.8345C6.91376 7.34553 6.48683 7.77003 6.18826 8.40799C5.8897 9.04594 5.75556 10.5416 7.29742 13.3424C8.83929 16.1432 9.92104 17.5754 12.16 19.808C14.399 22.0406 16.1207 23.241 18.6376 24.6525C21.7511 26.3962 22.9454 26.0563 23.5853 25.7582C24.2252 25.4601 24.6517 25.0371 25.1637 24.2679C25.4225 23.8757 25.6446 23.4605 25.8272 23.0276C26.0488 22.4973 26.1931 22.4973 25.3757 21.6718Z" stroke="white" stroke-width="1.6" stroke-miterlimit="10"/>
</svg>
