<svg width="16" height="16" viewBox="0 0 16 16" fill="none" xmlns="http://www.w3.org/2000/svg">
<path d="M3.64062 16H0.371094V5.48828H3.64062V16ZM1.98828 4.08203C0.96875 4.08203 0.125 3.20312 0.125 2.14844C0.125 1.12891 0.96875 0.285156 1.98828 0.285156C3.04297 0.285156 3.88672 1.12891 3.88672 2.14844C3.88672 3.20312 3.04297 4.08203 1.98828 4.08203ZM15.8398 16H12.6055V10.9023C12.6055 9.67188 12.5703 8.125 10.8828 8.125C9.19531 8.125 8.94922 9.42578 8.94922 10.7969V16H5.67969V5.48828H8.80859V6.92969H8.84375C9.30078 6.12109 10.3555 5.24219 11.9375 5.24219C15.2422 5.24219 15.875 7.42188 15.875 10.2344V16H15.8398Z" fill="#292F36"/>
</svg>
